<?xml version="1.0" encoding="UTF-8" standalone="no"?>
<svg
   xmlns:dc="http://purl.org/dc/elements/1.1/"
   xmlns:cc="http://creativecommons.org/ns#"
   xmlns:rdf="http://www.w3.org/1999/02/22-rdf-syntax-ns#"
   xmlns:svg="http://www.w3.org/2000/svg"
   xmlns="http://www.w3.org/2000/svg"
   id="svg6680"
   version="1.1"
   viewBox="0 0 210 297"
   height="297mm"
   width="210mm">
  <defs
     id="defs6674">
    <filter
       id="filter6709"
       style="color-interpolation-filters:sRGB;"
       x="-0.25"
       width="1.5"
       y="-0.25"
       height="1.5">
      <feComposite
         id="feComposite6697"
         k2="0.9"
         in="SourceGraphic"
         result="fbSourceGraphic"
         in2="SourceGraphic"
         operator="arithmetic" />
      <feGaussianBlur
         id="feGaussianBlur6699"
         stdDeviation="6"
         in="fbSourceGraphic"
         result="result0" />
      <feSpecularLighting
         id="feSpecularLighting6703"
         in="result0"
         result="result1"
         lighting-color="rgb(255,255,255)"
         surfaceScale="6"
         specularConstant="0.9"
         specularExponent="15">
        <feDistantLight
           id="feDistantLight6701"
           elevation="65"
           azimuth="235" />
      </feSpecularLighting>
      <feComposite
         id="feComposite6705"
         k1="0.1"
         in2="result0"
         in="result1"
         result="result4"
         operator="arithmetic"
         k2="0.7"
         k3="0.1" />
      <feComposite
         id="feComposite6707"
         in2="result0"
         in="result4"
         result="fbSourceGraphic"
         operator="atop" />
      <feColorMatrix
         id="feColorMatrix6711"
         values="0 0 0 -1 0 0 0 0 -1 0 0 0 0 -1 0 0 0 0 1 0"
         in="fbSourceGraphic"
         result="fbSourceGraphicAlpha" />
      <feGaussianBlur
         in="fbSourceGraphic"
         result="result10"
         stdDeviation="3"
         id="feGaussianBlur6713" />
      <feBlend
         in="result10"
         mode="multiply"
         result="result5"
         id="feBlend6715"
         in2="fbSourceGraphic" />
      <feComposite
         operator="over"
         result="fbSourceGraphic"
         in="result5"
         id="feComposite6717"
         in2="fbSourceGraphic" />
      <feGaussianBlur
         stdDeviation="5"
         result="result9"
         id="feGaussianBlur6719" />
      <feSpecularLighting
         specularExponent="45"
         specularConstant="2.2"
         surfaceScale="1"
         lighting-color="rgb(255,255,255)"
         result="result1"
         in="result9"
         id="feSpecularLighting6721">
        <fePointLight
           z="20000"
           y="-10000"
           x="-5000"
           id="fePointLight6723" />
      </feSpecularLighting>
      <feComposite
         operator="in"
         result="result2"
         in="result1"
         id="feComposite6725"
         in2="fbSourceGraphic" />
      <feComposite
         k3="0.8"
         k2="2"
         operator="arithmetic"
         result="result4"
         in="result2"
         id="feComposite6727"
         in2="fbSourceGraphic" />
      <feBlend
         result="fbSourceGraphic"
         mode="multiply"
         in="result4"
         id="feBlend6729"
         in2="result4" />
      <feColorMatrix
         id="feColorMatrix6731"
         values="0 0 0 -1 0 0 0 0 -1 0 0 0 0 -1 0 0 0 0 1 0"
         in="fbSourceGraphic"
         result="fbSourceGraphicAlpha" />
      <feOffset
         in="fbSourceGraphic"
         dx="3"
         dy="3"
         id="feOffset6733" />
      <feGaussianBlur
         result="blur"
         stdDeviation="3"
         id="feGaussianBlur6735" />
      <feFlood
         result="flood"
         flood-opacity="1"
         flood-color="rgb(0,0,0)"
         id="feFlood6737" />
      <feComposite
         result="composite"
         operator="in"
         in="flood"
         id="feComposite6739"
         in2="fbSourceGraphic" />
      <feBlend
         result="fbSourceGraphic"
         mode="normal"
         in="blur"
         id="feBlend6741"
         in2="composite" />
      <feColorMatrix
         id="feColorMatrix6743"
         values="0 0 0 -1 0 0 0 0 -1 0 0 0 0 -1 0 0 0 0 1 0"
         in="fbSourceGraphic"
         result="fbSourceGraphicAlpha" />
      <feGaussianBlur
         in="fbSourceGraphic"
         result="result1"
         stdDeviation="1"
         id="feGaussianBlur6745" />
      <feComposite
         operator="in"
         result="result4"
         in="result1"
         id="feComposite6747"
         in2="result1" />
      <feGaussianBlur
         in="result4"
         result="result6"
         stdDeviation="7"
         id="feGaussianBlur6749" />
      <feComposite
         result="result8"
         in="result6"
         operator="over"
         id="feComposite6751"
         in2="result4" />
      <feComposite
         in="result6"
         result="fbSourceGraphic"
         operator="in"
         id="feComposite6753"
         in2="result8" />
      <feSpecularLighting
         in="fbSourceGraphic"
         result="result1"
         lighting-color="rgb(255,255,255)"
         surfaceScale="2.5"
         specularConstant="2"
         specularExponent="45"
         id="feSpecularLighting6755">
        <fePointLight
           x="-5000"
           y="-10000"
           z="20000"
           id="fePointLight6757" />
      </feSpecularLighting>
      <feComposite
         in="result1"
         result="result2"
         operator="in"
         id="feComposite6759"
         in2="fbSourceGraphic" />
      <feComposite
         in="fbSourceGraphic"
         result="result4"
         operator="arithmetic"
         k2="1.2"
         k3="1.5"
         id="feComposite6761"
         in2="result2" />
      <feComposite
         result="result9"
         in="result9"
         operator="over"
         id="feComposite6763"
         in2="result4" />
      <feBlend
         result="fbSourceGraphic"
         mode="screen"
         id="feBlend6765"
         in2="result9" />
      <feColorMatrix
         id="feColorMatrix6843"
         values="0 0 0 -1 0 0 0 0 -1 0 0 0 0 -1 0 0 0 0 1 0"
         in="fbSourceGraphic"
         result="fbSourceGraphicAlpha" />
      <feConvolveMatrix
         targetY="1"
         targetX="1"
         in="fbSourceGraphic"
         divisor="1"
         kernelMatrix="0 -0.15 0 -0.15 1.6 -0.15 0 -0.15 0"
         order="3 3"
         id="feConvolveMatrix6845" />
    </filter>
  </defs>
  <metadata
     id="metadata6677">
    <rdf:RDF>
      <cc:Work
         rdf:about="">
        <dc:format>image/svg+xml</dc:format>
        <dc:type
           rdf:resource="http://purl.org/dc/dcmitype/StillImage" />
        <dc:title></dc:title>
      </cc:Work>
    </rdf:RDF>
  </metadata>
  <g
     id="layer1">
    <path
       id="text6690"
       transform="scale(0.26458333)"
       d="m 655.76953,194.49219 c -15.36002,0 -29.54385,6.57585 -42.55469,19.72461 -12.92048,13.14875 -23.76309,31.7748 -32.52734,55.88086 -9.12566,25.08003 -16.08238,55.15149 -20.87109,90.21484 -4.78872,35.06335 -7.1836,74.14544 -7.1836,117.24414 0,46.26414 2.48371,87.04862 7.45313,122.35547 5.05977,35.30684 12.15364,64.76961 21.27929,88.38867 9.12566,23.61906 20.01268,41.39489 32.66211,53.32617 12.73979,11.93128 26.60882,17.89649 41.60743,17.89649 10.11954,0 18.07092,-1.33913 23.85351,-4.01758 5.7826,-2.67845 11.97259,-6.5741 18.56836,-11.6875 5.05977,-3.89593 9.89199,-8.52201 14.5,-13.87891 4.60801,-5.3569 9.44218,-11.07863 14.50195,-17.16601 V 582.74609 h -5.41992 c -2.43953,5.8439 -5.55673,12.78301 -9.35156,20.81836 -3.79483,8.03535 -7.90668,15.58512 -12.33399,22.64649 -5.24047,8.76583 -10.97852,15.70495 -17.21289,20.81836 -6.144,5.1134 -12.37841,7.66992 -18.70312,7.66992 -6.59577,0 -13.28211,-2.8 -20.05859,-8.40039 -6.77648,-5.84389 -12.92011,-15.46127 -18.43164,-28.85352 -5.42119,-13.14875 -9.93862,-31.16806 -13.55274,-54.05664 -3.52377,-22.88857 -5.28516,-51.37743 -5.28516,-85.46679 0,-32.6284 1.6262,-60.38682 4.87891,-83.2754 3.34306,-22.88857 7.68089,-41.2731 13.01172,-55.15234 5.60189,-14.36623 11.69915,-24.5923 18.29492,-30.67969 6.59577,-6.33088 13.55445,-9.49609 20.87305,-9.49609 6.59577,0 12.78381,2.67826 18.5664,8.03516 5.7826,5.3569 11.15949,11.9308 16.12891,19.72265 4.87907,7.79186 9.21494,15.70489 13.00977,23.74024 3.88518,8.03535 7.09316,14.97642 9.62304,20.82031 h 5.96289 V 239.7832 c -3.70447,-4.86991 -8.04034,-10.10468 -13.00976,-15.70508 -4.87907,-5.84389 -10.34674,-11.07866 -16.40039,-15.70507 -5.7826,-4.13943 -12.10583,-7.42833 -18.97266,-9.86328 -6.77648,-2.67845 -14.41306,-4.01758 -22.90625,-4.01758 z m -235.27539,0.73047 c -26.47345,0 -48.15866,16.07148 -65.05469,48.21289 -16.80567,31.89791 -25.20898,73.1713 -25.20898,123.81836 0,37.7418 3.70433,69.39586 11.11328,94.96289 7.4993,25.32353 19.74214,45.41044 36.72852,60.26367 7.40895,6.57438 15.31591,12.05458 23.71875,16.4375 8.49318,4.13942 16.53534,8.64376 24.125,13.51367 7.22824,4.62641 12.69396,11.32205 16.39843,20.08789 3.79483,8.52234 5.69141,18.74841 5.69141,30.67969 0,12.90526 -1.30945,22.64632 -3.92969,29.2207 -2.52988,6.57438 -5.78228,12.05263 -9.75781,16.43555 -3.25271,3.40894 -7.45534,5.84371 -12.60547,7.30469 -5.15012,1.46097 -9.30639,2.1914 -12.46875,2.1914 -12.28802,0 -25.11798,-6.20868 -38.49023,-18.62695 -13.2819,-12.41827 -25.29877,-30.1941 -36.05079,-53.32617 h -5.6914 v 130.39258 c 10.84237,12.17477 22.45171,22.2791 34.83008,30.31445 12.46872,7.79185 27.06202,11.6875 43.77734,11.6875 28.91298,0 51.77246,-16.67823 68.57813,-50.03711 16.89602,-33.60238 25.34375,-77.18881 25.34375,-130.75781 0,-37.49831 -3.70433,-67.93498 -11.11329,-91.31055 -7.31859,-23.61906 -18.70392,-42.24707 -34.15429,-55.88281 -7.86072,-6.81788 -15.22497,-12.17439 -22.0918,-16.07031 -6.77648,-3.89593 -13.86839,-7.91332 -21.27734,-12.05274 -11.29414,-6.33088 -18.97513,-13.27 -23.04102,-20.81836 -4.06589,-7.79185 -6.09766,-18.87205 -6.09766,-33.23828 0,-9.49632 1.26504,-17.89631 3.79493,-25.20117 2.52988,-7.54836 5.55631,-13.14835 9.08007,-16.80078 3.97554,-4.38292 8.0874,-7.30466 12.33399,-8.76563 4.33695,-1.70447 8.67282,-2.55664 13.00977,-2.55664 12.28801,0 24.30488,5.96521 36.05078,17.89649 11.83625,11.68778 21.82135,26.29645 29.95312,43.82812 h 5.55664 V 231.74805 c -9.48707,-10.47031 -20.7372,-19.11377 -33.74804,-25.93164 -12.92049,-7.06137 -26.02084,-10.59375 -39.30274,-10.59375 z M 64.244698,245.08398 49.958984,748.93164 h 49.0625 V 384.78516 l 37.404296,236.3125 h 35.91602 l 37.40625,-236.3125 v 364.14648 h 51.77343 V 245.08398 l -60.44726,-40 -45.26758,272.8379 -45.40234,-272.8379 z"
       style="font-style:normal;font-variant:normal;font-weight:bold;font-stretch:normal;font-size:120.55926514px;line-height:6.25;font-family:sans-serif;-inkscape-font-specification:'sans-serif Bold';text-align:center;letter-spacing:11.77213764px;word-spacing:6.6998291px;text-anchor:middle;fill:#80b3ff;fill-opacity:1;stroke:none;stroke-width:2.37321377;filter:url(#filter6709)" />
  </g>
</svg>
